<svg xmlns="http://www.w3.org/2000/svg" viewBox="0 0 280 410" role="img" aria-label="Qihe electrical engineering character">
  <defs>
    <linearGradient id="coat" x1="44" x2="238" y1="236" y2="396" gradientUnits="userSpaceOnUse">
      <stop stop-color="#fff6d8"/>
      <stop offset="1" stop-color="#dca72e"/>
    </linearGradient>
    <linearGradient id="hair" x1="52" x2="226" y1="42" y2="232" gradientUnits="userSpaceOnUse">
      <stop stop-color="#9f6730"/>
      <stop offset=".55" stop-color="#f1c478"/>
      <stop offset="1" stop-color="#fff0c2"/>
    </linearGradient>
  </defs>
  <path fill="#ffd95d" opacity=".32" d="m232 106 28-61-15 57h24l-43 80 14-58h-25z"/>
  <path fill="url(#coat)" d="M48 270c18-45 163-45 184 0l26 125H22z"/>
  <path fill="#fffaf0" d="M96 252h88l-18 76h-52z"/>
  <path fill="#e5a92f" d="m112 260 29 53 29-53 18 135H91z"/>
  <path fill="#f0c0ab" d="M104 211h72v58c-19 18-53 18-72 0z"/>
  <path fill="#ffd9c9" d="M62 116c4-49 35-77 80-77s76 28 80 77l6 62c-8 50-40 79-86 79s-78-29-86-79z"/>
  <path fill="url(#hair)" d="M51 176C31 91 79 30 144 30c56 0 98 38 96 120-18-40-51-64-101-71-43 0-66 31-88 97z"/>
  <path fill="#c18444" opacity=".58" d="M80 60c-32 39-36 102-18 183-28-33-30-128 18-183zm120 8c55 50 52 125 23 177 14-77-2-132-23-177z"/>
  <path fill="#704c2b" d="M82 160c19-12 34-12 49 1-16-5-31-5-49-1zm74 1c18-13 33-13 50 0-17-5-32-5-50 0z"/>
  <path fill="#d98b8b" d="M118 214c15 10 34 10 48 0-7 19-41 19-48 0z"/>
  <text x="141" y="376" text-anchor="middle" fill="#5f410e" font-family="Arial, sans-serif" font-size="58" font-weight="800">⚡</text>
</svg>
