<svg xmlns="http://www.w3.org/2000/svg" viewBox="0 0 280 410" role="img" aria-label="Xingyao communication engineering character">
  <defs>
    <linearGradient id="coat" x1="40" x2="240" y1="238" y2="396" gradientUnits="userSpaceOnUse">
      <stop stop-color="#f7fbff"/>
      <stop offset="1" stop-color="#7cb7e6"/>
    </linearGradient>
    <linearGradient id="hair" x1="52" x2="230" y1="38" y2="226" gradientUnits="userSpaceOnUse">
      <stop stop-color="#bed1ff"/>
      <stop offset="1" stop-color="#ffffff"/>
    </linearGradient>
  </defs>
  <path fill="none" stroke="#d8ecff" stroke-width="6" d="M226 127c22-31 45-48 62-39m-62 39c31-4 55-18 72-42" opacity=".68"/>
  <path fill="none" stroke="#80ccff" stroke-width="4" d="M229 157c17 9 26 24 26 43m-26-43c-17 9-26 24-26 43" opacity=".7"/>
  <path fill="url(#coat)" d="M49 268c21-45 158-45 182 0l28 127H21z"/>
  <path fill="#fbfdff" d="M98 251h86l-18 80h-52z"/>
  <path fill="#5d98d2" d="m113 261 28 47 29-47 21 134H89z"/>
  <path fill="#f0c0ab" d="M104 211h72v58c-19 18-53 18-72 0z"/>
  <path fill="#ffd9c9" d="M60 113c4-49 35-76 82-76s79 27 83 76l6 65c-9 50-42 79-89 79s-80-29-89-79z"/>
  <path fill="url(#hair)" d="M48 185C25 98 76 30 144 30c70 0 110 53 98 136-23-42-56-72-99-81-45 2-73 34-95 100z"/>
  <path fill="#e9f3ff" opacity=".82" d="M62 62c-35 53-31 127-3 184-46-42-45-140 3-184zm144 5c50 60 39 141 12 184 11-72 6-134-12-184z"/>
  <path fill="#60759c" d="M82 160c18-12 34-12 51 0-17-5-32-5-51 0zm75 0c18-13 34-13 51 0-17-5-33-5-51 0z"/>
  <path fill="#d98b8b" d="M119 214c14 10 33 10 47 0-7 18-40 18-47 0z"/>
  <text x="141" y="374" text-anchor="middle" fill="#e7f7ff" font-family="Arial, sans-serif" font-size="54" font-weight="800">⌁</text>
</svg>
