<svg xmlns="http://www.w3.org/2000/svg" viewBox="0 0 280 410" role="img" aria-label="Luoling computer science character">
  <defs>
    <linearGradient id="coat" x1="40" x2="240" y1="240" y2="390" gradientUnits="userSpaceOnUse">
      <stop stop-color="#142849"/>
      <stop offset="1" stop-color="#5a8dff"/>
    </linearGradient>
    <linearGradient id="hair" x1="48" x2="236" y1="38" y2="226" gradientUnits="userSpaceOnUse">
      <stop stop-color="#0e1322"/>
      <stop offset="1" stop-color="#354f94"/>
    </linearGradient>
  </defs>
  <path fill="#65d9ff" opacity=".24" d="M35 118 19 86h34l-9 15 23 9-8 19-19-15z"/>
  <path fill="url(#coat)" d="M56 267c20-47 146-47 168 0l28 128H28z"/>
  <path fill="#e9f7ff" d="M100 254h80l-14 77h-52z"/>
  <path fill="#5477c9" d="m112 260 28 42 28-42 22 135H90z"/>
  <path fill="#f0c0ab" d="M105 211h70v58c-18 17-52 17-70 0z"/>
  <path fill="#ffd9c9" d="M66 103c4-45 33-72 76-72s71 27 75 72l6 75c-9 48-39 78-81 78s-72-30-81-78z"/>
  <path fill="url(#hair)" d="M58 177C34 94 76 28 143 28c64 0 107 51 92 132-15-34-42-71-89-77-42-5-70 28-88 94z"/>
  <path fill="#111827" opacity=".74" d="M69 90c30-44 95-43 139-7-48 2-87 20-139 7z"/>
  <path fill="#243659" d="M82 159c18-13 33-13 48 0-15-5-30-5-48 0zm74 0c17-13 32-13 48 0-15-5-30-5-48 0z"/>
  <path fill="#33415f" d="M92 166h36v20H92zm60 0h36v20h-36z" opacity=".35"/>
  <path fill="none" stroke="#26344f" stroke-width="5" d="M92 166h36v20H92zm60 0h36v20h-36zm36 10h14m-74 0h24"/>
  <path fill="#d98b8b" d="M119 213c14 10 32 10 46 0-6 18-39 18-46 0z"/>
  <path fill="none" stroke="#8bdcff" stroke-linecap="round" stroke-width="7" d="M62 300h47m62 0h48"/>
  <text x="139" y="374" text-anchor="middle" fill="#dff7ff" font-family="Consolas, monospace" font-size="28" font-weight="700">&lt;/&gt;</text>
</svg>
